<svg width="23" height="23" viewBox="0 0 23 23" fill="none" xmlns="http://www.w3.org/2000/svg">
<path d="M19.7692 15.3323C19.6946 15.2424 19.6214 15.1526 19.5496 15.0659C18.5613 13.8705 17.9634 13.1491 17.9634 9.76512C17.9634 8.01316 17.5442 6.57566 16.7181 5.49754C16.109 4.70107 15.2856 4.09688 14.2003 3.65035C14.1863 3.64258 14.1738 3.63239 14.1634 3.62025C13.773 2.31303 12.7048 1.4375 11.5 1.4375C10.2952 1.4375 9.2274 2.31303 8.83703 3.61891C8.82661 3.6306 8.81432 3.64047 8.80065 3.64811C6.26795 4.69074 5.03709 6.69111 5.03709 9.76377C5.03709 13.1491 4.44008 13.8705 3.4509 15.0646C3.37902 15.1513 3.3058 15.2393 3.23123 15.3309C3.03861 15.5632 2.91656 15.8459 2.87954 16.1454C2.84253 16.4449 2.89208 16.7487 3.02235 17.0209C3.29951 17.6049 3.89024 17.9674 4.56451 17.9674H18.4404C19.1116 17.9674 19.6982 17.6053 19.9763 17.024C20.1071 16.7518 20.1572 16.4477 20.1205 16.1478C20.0838 15.848 19.9619 15.565 19.7692 15.3323Z" fill="#A0A0A0"/>
<path d="M11.5009 21.5625C12.15 21.562 12.7869 21.3858 13.344 21.0526C13.9011 20.7194 14.3576 20.2416 14.6652 19.6699C14.6796 19.6425 14.6868 19.6119 14.6859 19.5809C14.6851 19.5499 14.6762 19.5197 14.6602 19.4931C14.6442 19.4666 14.6216 19.4447 14.5946 19.4294C14.5676 19.4142 14.5371 19.4062 14.5061 19.4063H8.49648C8.46545 19.4061 8.43492 19.4141 8.40787 19.4293C8.38081 19.4445 8.35815 19.4664 8.34209 19.4929C8.32604 19.5195 8.31713 19.5498 8.31624 19.5808C8.31535 19.6118 8.3225 19.6425 8.33701 19.6699C8.64451 20.2415 9.10097 20.7193 9.65798 21.0525C10.215 21.3856 10.8518 21.5619 11.5009 21.5625Z" fill="#A0A0A0"/>
</svg>
