<svg width="23" height="23" viewBox="0 0 23 23" fill="none" xmlns="http://www.w3.org/2000/svg">
<path fill-rule="evenodd" clip-rule="evenodd" d="M3.59375 13.6562C3.59375 13.1104 4.03622 12.668 4.58203 12.668H18.418C18.9638 12.668 19.4062 13.1104 19.4062 13.6562C19.4062 14.2021 18.9638 14.6445 18.418 14.6445H4.58203C4.03622 14.6445 3.59375 14.2021 3.59375 13.6562Z" fill="#A0A0A0"/>
<path fill-rule="evenodd" clip-rule="evenodd" d="M3.59375 9.34375C3.59375 8.79794 4.03622 8.35547 4.58203 8.35547H18.418C18.9638 8.35547 19.4062 8.79794 19.4062 9.34375C19.4062 9.88956 18.9638 10.332 18.418 10.332H4.58203C4.03622 10.332 3.59375 9.88956 3.59375 9.34375Z" fill="#A0A0A0"/>
<path fill-rule="evenodd" clip-rule="evenodd" d="M3.59375 5.03125C3.59375 4.48544 4.03622 4.04297 4.58203 4.04297H18.418C18.9638 4.04297 19.4062 4.48544 19.4062 5.03125C19.4062 5.57706 18.9638 6.01953 18.418 6.01953H4.58203C4.03622 6.01953 3.59375 5.57706 3.59375 5.03125Z" fill="#A0A0A0"/>
<path fill-rule="evenodd" clip-rule="evenodd" d="M3.59375 17.9688C3.59375 17.4229 4.03622 16.9805 4.58203 16.9805H18.418C18.9638 16.9805 19.4062 17.4229 19.4062 17.9688C19.4062 18.5146 18.9638 18.957 18.418 18.957H4.58203C4.03622 18.957 3.59375 18.5146 3.59375 17.9688Z" fill="#A0A0A0"/>
</svg>
