<svg width="23" height="24" viewBox="0 0 23 24" fill="none" xmlns="http://www.w3.org/2000/svg">
<path fill-rule="evenodd" clip-rule="evenodd" d="M7.90625 21C7.90625 20.5858 8.22805 20.25 8.625 20.25H14.375C14.772 20.25 15.0938 20.5858 15.0938 21C15.0938 21.4142 14.772 21.75 14.375 21.75H8.625C8.22805 21.75 7.90625 21.4142 7.90625 21Z" fill="#114DA7"/>
<path fill-rule="evenodd" clip-rule="evenodd" d="M5.75 9C6.14695 9 6.46875 9.33579 6.46875 9.75V11.25C6.46875 14.1358 8.73445 16.5 11.5 16.5C14.2655 16.5 16.5312 14.1358 16.5312 11.25V9.75C16.5312 9.33579 16.853 9 17.25 9C17.647 9 17.9688 9.33579 17.9688 9.75V11.25C17.9688 14.9642 15.0595 18 11.5 18C7.94055 18 5.03125 14.9642 5.03125 11.25V9.75C5.03125 9.33579 5.35305 9 5.75 9Z" fill="#114DA7"/>
<path fill-rule="evenodd" clip-rule="evenodd" d="M11.5 16.5C11.897 16.5 12.2188 16.8358 12.2188 17.25V21C12.2188 21.4142 11.897 21.75 11.5 21.75C11.103 21.75 10.7812 21.4142 10.7812 21V17.25C10.7812 16.8358 11.103 16.5 11.5 16.5Z" fill="#114DA7"/>
<path d="M11.5 15C11.0256 14.9988 10.5563 14.8982 10.12 14.7042C9.68357 14.5101 9.289 14.2266 8.95966 13.8703C8.28546 13.1608 7.90689 12.2023 7.90625 11.2031V6C7.90441 5.507 7.9961 5.0185 8.17605 4.56266C8.356 4.10683 8.62065 3.69267 8.95473 3.34406C9.2888 2.99546 9.68571 2.71931 10.1226 2.53154C10.5594 2.34376 11.0275 2.24808 11.5 2.25C13.5152 2.25 15.0937 3.89719 15.0937 6V11.2031C15.0937 13.2966 13.4815 15 11.5 15Z" fill="#114DA7"/>
</svg>
